<svg width="56" height="115" viewBox="0 0 56 115" fill="none" xmlns="http://www.w3.org/2000/svg">
<g clip-path="url(#clip0_14_73)">
<path d="M31.836 73.006C32.118 72.725 32.354 72.416 32.561 72.094L54.17 50.485C56.277 48.376 56.279 44.957 54.17 42.847C52.061 40.74 48.643 40.738 46.532 42.847L27.924 61.457L9.21701 42.753C7.10801 40.645 3.69001 40.644 1.58001 42.753C0.527006 43.809 -0.00199435 45.19 5.64976e-06 46.571C-0.00199435 47.953 0.527006 49.335 1.58201 50.387L23.285 72.093C23.492 72.416 23.73 72.724 24.014 73.006C25.092 74.084 26.51 74.603 27.924 74.578C29.336 74.604 30.758 74.084 31.836 73.006Z" fill="#0057FF" fill-opacity="0.7"/>
</g>
<g clip-path="url(#clip1_14_73)">
<path d="M31.836 102.006C32.118 101.725 32.354 101.416 32.561 101.094L54.17 79.485C56.277 77.376 56.279 73.957 54.17 71.847C52.061 69.74 48.643 69.738 46.532 71.847L27.924 90.457L9.21701 71.753C7.10801 69.645 3.69001 69.644 1.58001 71.753C0.527006 72.809 -0.00199435 74.19 5.64976e-06 75.571C-0.00199435 76.953 0.527006 78.335 1.58201 79.387L23.285 101.093C23.492 101.416 23.73 101.724 24.014 102.006C25.092 103.084 26.51 103.603 27.924 103.578C29.336 103.604 30.758 103.084 31.836 102.006Z" fill="#0057FF"/>
</g>
<g clip-path="url(#clip2_14_73)">
<path d="M31.836 43.006C32.118 42.725 32.354 42.416 32.561 42.094L54.17 20.485C56.277 18.376 56.279 14.957 54.17 12.847C52.061 10.74 48.643 10.738 46.532 12.847L27.924 31.457L9.21701 12.753C7.10801 10.645 3.69001 10.644 1.58001 12.753C0.527006 13.809 -0.00199435 15.19 5.64976e-06 16.571C-0.00199435 17.953 0.527006 19.335 1.58201 20.387L23.285 42.093C23.492 42.416 23.73 42.724 24.014 43.006C25.092 44.084 26.51 44.603 27.924 44.578C29.336 44.604 30.758 44.084 31.836 43.006Z" fill="#0057FF" fill-opacity="0.35"/>
</g>
<defs>
<clipPath id="clip0_14_73">
<rect width="55.751" height="55.751" fill="white" transform="translate(0 30)"/>
</clipPath>
<clipPath id="clip1_14_73">
<rect width="55.751" height="55.751" fill="white" transform="translate(0 59)"/>
</clipPath>
<clipPath id="clip2_14_73">
<rect width="55.751" height="55.751" fill="white"/>
</clipPath>
</defs>
</svg>
