<svg id="visual" viewBox="0 0 960 540" width="960" height="540" xmlns="http://www.w3.org/2000/svg" xmlns:xlink="http://www.w3.org/1999/xlink" version="1.1"><rect x="0" y="0" width="960" height="540" fill="#5790FF"></rect><defs><linearGradient id="grad1_0" x1="43.8%" y1="100%" x2="100%" y2="0%"><stop offset="14.444444444444446%" stop-color="#85adff" stop-opacity="1"></stop><stop offset="85.55555555555554%" stop-color="#85adff" stop-opacity="1"></stop></linearGradient></defs><defs><linearGradient id="grad1_1" x1="43.8%" y1="100%" x2="100%" y2="0%"><stop offset="14.444444444444446%" stop-color="#85adff" stop-opacity="1"></stop><stop offset="85.55555555555554%" stop-color="#6f9fff" stop-opacity="1"></stop></linearGradient></defs><defs><linearGradient id="grad1_2" x1="43.8%" y1="100%" x2="100%" y2="0%"><stop offset="14.444444444444446%" stop-color="#5790ff" stop-opacity="1"></stop><stop offset="85.55555555555554%" stop-color="#6f9fff" stop-opacity="1"></stop></linearGradient></defs><defs><linearGradient id="grad2_0" x1="0%" y1="100%" x2="56.3%" y2="0%"><stop offset="14.444444444444446%" stop-color="#85adff" stop-opacity="1"></stop><stop offset="85.55555555555554%" stop-color="#85adff" stop-opacity="1"></stop></linearGradient></defs><defs><linearGradient id="grad2_1" x1="0%" y1="100%" x2="56.3%" y2="0%"><stop offset="14.444444444444446%" stop-color="#6f9fff" stop-opacity="1"></stop><stop offset="85.55555555555554%" stop-color="#85adff" stop-opacity="1"></stop></linearGradient></defs><defs><linearGradient id="grad2_2" x1="0%" y1="100%" x2="56.3%" y2="0%"><stop offset="14.444444444444446%" stop-color="#6f9fff" stop-opacity="1"></stop><stop offset="85.55555555555554%" stop-color="#5790ff" stop-opacity="1"></stop></linearGradient></defs><g transform="translate(960, 540)"><path d="M-270 0C-252.5 -41 -235.1 -81.9 -214.8 -124C-194.5 -166.1 -171.3 -209.3 -135 -233.8C-98.7 -258.3 -49.4 -264.2 0 -270L0 0Z" fill="#6397ff"></path><path d="M-180 0C-168.4 -27.3 -156.7 -54.6 -143.2 -82.7C-129.6 -110.7 -114.2 -139.5 -90 -155.9C-65.8 -172.2 -32.9 -176.1 0 -180L0 0Z" fill="#7aa6ff"></path><path d="M-90 0C-84.2 -13.7 -78.4 -27.3 -71.6 -41.3C-64.8 -55.4 -57.1 -69.8 -45 -77.9C-32.9 -86.1 -16.5 -88.1 0 -90L0 0Z" fill="#85adff"></path></g><g transform="translate(0, 0)"><path d="M270 0C261.3 46 252.6 92 231.2 133.5C209.8 175 175.7 211.8 135 233.8C94.3 255.8 47.2 262.9 0 270L0 0Z" fill="#6397ff"></path><path d="M180 0C174.2 30.7 168.4 61.4 154.2 89C139.9 116.6 117.1 141.2 90 155.9C62.9 170.5 31.4 175.3 0 180L0 0Z" fill="#7aa6ff"></path><path d="M90 0C87.1 15.3 84.2 30.7 77.1 44.5C69.9 58.3 58.6 70.6 45 77.9C31.4 85.3 15.7 87.6 0 90L0 0Z" fill="#85adff"></path></g></svg>