<svg width="48" height="48" viewBox="0 0 48 48" fill="none" xmlns="http://www.w3.org/2000/svg">
<g clip-path="url(#clip0_14_43)">
<path d="M28.228 23.986L47.092 5.12198C48.264 3.95098 48.264 2.05098 47.092 0.879977C45.92 -0.292023 44.022 -0.292023 42.85 0.879977L23.986 19.744L5.121 0.879977C3.949 -0.292023 2.051 -0.292023 0.879 0.879977C-0.293 2.05098 -0.293 3.95098 0.879 5.12198L19.744 23.986L0.879 42.85C-0.293 44.021 -0.293 45.921 0.879 47.092C1.465 47.677 2.233 47.97 3 47.97C3.767 47.97 4.535 47.677 5.121 47.091L23.986 28.227L42.85 47.091C43.436 47.677 44.204 47.97 44.971 47.97C45.738 47.97 46.506 47.677 47.092 47.091C48.264 45.92 48.264 44.02 47.092 42.849L28.228 23.986Z" fill="#7A68FF"/>
</g>
<defs>
<clipPath id="clip0_14_43">
<rect width="47.971" height="47.971" fill="white"/>
</clipPath>
</defs>
</svg>
