<svg width="69" height="51" viewBox="0 0 69 51" fill="none" xmlns="http://www.w3.org/2000/svg">
<path d="M2.15619 6.84371H66.8436C68.0339 6.84371 68.9998 5.31759 68.9998 3.43754C68.9998 1.55721 68.0337 0.0313721 66.8436 0.0313721H2.15619C0.966075 0.0313721 0 1.55721 0 3.43754C0 5.31787 0.966075 6.84371 2.15619 6.84371Z" fill="#7A68FF"/>
<path d="M66.8436 21.8438H2.15619C0.965896 21.8438 0 23.3699 0 25.2499C0 27.13 0.966075 28.6561 2.15619 28.6561H66.8436C68.0339 28.6561 68.9998 27.13 68.9998 25.2499C68.9998 23.3699 68.0339 21.8438 66.8436 21.8438Z" fill="#7A68FF"/>
<path d="M66.8436 43.6561H2.15619C0.965896 43.6561 0 45.1823 0 47.0623C0 48.9426 0.966075 50.4685 2.15619 50.4685H66.8436C68.0339 50.4685 68.9998 48.9424 68.9998 47.0623C69 45.182 68.0339 43.6561 66.8436 43.6561Z" fill="#7A68FF"/>
</svg>
