<svg width="398" height="482" viewBox="0 0 398 482" fill="none" xmlns="http://www.w3.org/2000/svg">
<path opacity="0.4" d="M222.72 374.998L165.8 342.138C161.69 339.768 162.21 335.628 166.95 332.888L203.83 311.598L275.62 353.078L238.75 374.368C234 377.108 226.83 377.398 222.72 374.998Z" fill="#D6D8E5"/>
<path d="M226.88 372.588L169.95 339.718C165.85 337.348 166.37 333.218 171.1 330.478L207.98 309.188L279.77 350.628L242.89 371.928C238.15 374.658 230.98 374.998 226.88 372.588Z" fill="#B1B4C4"/>
<path d="M279.77 350.628V348.458L276.46 350.368L279.77 350.628Z" fill="#B1B4C4"/>
<path d="M167.18 335.808V333.598L170.59 335.008L167.18 335.808Z" fill="#B1B4C4"/>
<path d="M226.88 370.418L169.95 337.548C165.85 335.178 166.37 331.038 171.1 328.308L207.98 306.998L279.77 348.448L242.89 369.738C238.15 372.488 230.98 372.778 226.88 370.418Z" fill="#D6D8E5"/>
<path d="M208.18 307.108L199.29 277.628L271.86 319.258L279.77 348.458L208.18 307.108Z" fill="#9EA1AF"/>
<path d="M277.67 349.668L279.77 348.458L276.62 345.998L277.67 349.668Z" fill="#9EA1AF"/>
<path d="M205.89 308.218L197 278.738L269.57 320.368L277.67 349.668L205.89 308.218Z" fill="#B1B4C4"/>
<path d="M390.11 399.348L109.2 237.168C105.26 234.888 102.07 228.788 102.07 223.538V6.24836C102.07 0.998358 105.26 -1.42164 109.2 0.858359L390.11 162.998C394.05 165.268 397.24 171.368 397.24 176.628V393.998C397.24 399.208 394.05 401.628 390.11 399.348Z" fill="#C4C7D6"/>
<path d="M391.55 401.588L394.67 399.798L393.32 390.568L391.55 401.588Z" fill="#C4C7D6"/>
<path d="M101.56 2.18835L104.62 0.428345L109.02 2.93835C109.02 2.93835 104.33 3.64835 104.22 3.61835C104.11 3.58835 101.56 2.18835 101.56 2.18835Z" fill="#B1B4C4"/>
<path d="M387.53 400.838L106.62 238.658C102.68 236.378 99.48 230.278 99.48 225.028V7.73835C99.48 2.47835 102.68 0.0683494 106.62 2.33835L387.52 164.518C391.46 166.798 394.66 172.898 394.66 178.158V395.438C394.67 400.698 391.47 403.108 387.53 400.838Z" fill="#E4E7F2"/>
<path d="M387.04 401.118L106.13 238.938C102.19 236.658 99 230.558 99 225.308V7.99836C99 2.74836 102.19 0.328358 106.13 2.60836L387.04 164.808C390.98 167.078 394.17 173.178 394.17 178.438V395.728C394.17 400.998 390.98 403.398 387.04 401.118Z" fill="#201D38"/>
<path opacity="0.3" d="M390.31 387.908L102.56 221.778L102.71 8.88834C102.71 6.70834 104.24 5.82834 106.13 6.88834L387.04 169.098C388.036 169.746 388.864 170.62 389.459 171.649C390.053 172.678 390.396 173.832 390.46 175.018L390.31 387.908Z" fill="url(#paint0_linear_203_213)"/>
<path d="M277.24 142.078L258.17 131.068V124.188L277.24 135.198V142.078Z" fill="#A298E2"/>
<path d="M321.32 167.548L280.81 144.138V137.258L321.32 160.668V167.548Z" fill="#F4CE2C"/>
<path d="M277.24 164.088L258.17 153.088V146.208L277.24 157.208V164.088Z" fill="#A298E2"/>
<path d="M294.23 174.068L280.81 166.158V159.278L294.23 167.188V174.068Z" fill="#4D3BFF"/>
<path d="M277.24 175.098L258.17 164.088V157.208L277.24 168.218V175.098Z" fill="#A298E2"/>
<path d="M303.45 190.228L280.81 177.158V170.278L303.45 183.348V190.228Z" fill="#4D3BFF"/>
<path d="M277.24 186.098L258.17 175.098V168.218L277.24 179.228V186.098Z" fill="#A298E2"/>
<path d="M340.52 222.558L280.81 188.168V181.288L340.52 215.688V222.558Z" fill="#FF8657"/>
<path d="M277.24 153.088L258.17 142.078V135.198L277.24 146.208V153.088Z" fill="#A298E2"/>
<path d="M355.19 198.138L280.81 155.148V148.268L355.19 191.258V198.138Z" fill="#A298E2"/>
<path d="M277.24 197.108L258.17 186.098V179.218L277.24 190.228V197.108Z" fill="#A298E2"/>
<path d="M345.15 237.008L280.81 199.178V192.298L345.15 230.128V237.008Z" fill="#C33AFC"/>
<path d="M277.24 219.128L258.17 208.118V201.238L277.24 212.248V219.128Z" fill="#A298E2"/>
<path d="M355.88 264.528L280.81 221.188V214.308L355.88 257.648V264.528Z" fill="#A298E2"/>
<path d="M277.24 230.128L258.17 219.128V212.248L277.24 223.248V230.128Z" fill="#A298E2"/>
<path d="M303.45 245.268L280.81 232.188V225.318L303.45 238.388V245.268Z" fill="#C33AFC"/>
<path d="M277.24 241.138L258.17 230.128V223.248L277.24 234.258V241.138Z" fill="#A298E2"/>
<path d="M327.07 270.028L280.81 243.198V236.318L327.07 263.148V270.028Z" fill="#4D3BFF"/>
<path d="M277.24 208.118L258.17 197.108V190.228L277.24 201.238V208.118Z" fill="#A298E2"/>
<path d="M289.15 214.998L280.81 210.178V203.298L289.15 208.118V214.998Z" fill="#4D3BFF"/>
<path d="M277.24 252.148L258.17 241.138V234.258L277.24 245.268V252.148Z" fill="#A298E2"/>
<path d="M310.67 271.408L280.81 254.208V247.328L310.67 264.528V271.408Z" fill="#C33AFC"/>
<path d="M277.24 274.158L258.17 263.148V256.268L277.24 267.278V274.158Z" fill="#A298E2"/>
<path d="M324.38 301.058L280.81 276.218V269.338L324.38 294.178V301.058Z" fill="#FF8657"/>
<path d="M277.24 285.168L258.17 274.158V267.278L277.24 278.288V285.168Z" fill="#A298E2"/>
<path d="M286.25 290.668L280.81 287.228V280.348L286.25 283.788V290.668Z" fill="#A298E2"/>
<path d="M277.24 296.168L258.17 285.168V278.288L277.24 289.288V296.168Z" fill="#A298E2"/>
<path d="M305.8 312.628L280.81 298.238V291.358L305.8 305.748V312.628Z" fill="#F4CE2C"/>
<path d="M277.24 263.148L258.17 252.148V245.258L277.24 256.268V263.148Z" fill="#A298E2"/>
<path d="M315.58 285.168L280.81 265.208V258.338L315.58 278.288V285.168Z" fill="#4D3BFF"/>
<path d="M153.9 73.2884L134.83 62.2784V55.3984L153.9 66.4084V73.2884Z" fill="#A298E2"/>
<path d="M238.5 122.128L157.47 75.3484V68.4684L238.5 115.248V122.128Z" fill="#C33AFC"/>
<path d="M153.9 95.2984L134.83 84.2884V77.4084L153.9 88.4184V95.2984Z" fill="#A298E2"/>
<path d="M211.09 128.318L157.47 97.3584V90.4784L211.09 121.438V128.318Z" fill="#F4CE2C"/>
<path d="M153.9 106.308L134.83 95.2984V88.4184L153.9 99.4284V106.308Z" fill="#A298E2"/>
<path d="M224.2 146.888L157.47 108.368V101.488L224.2 140.008V146.888Z" fill="#FF8657"/>
<path d="M153.9 117.308L134.83 106.308V99.4284L153.9 110.428V117.308Z" fill="#A298E2"/>
<path d="M203.94 146.208L157.47 119.378V112.498L203.94 139.328V146.208Z" fill="#A298E2"/>
<path d="M153.9 84.2883L134.83 73.2783V66.4084L153.9 77.4084V84.2883Z" fill="#A298E2"/>
<path d="M197.98 109.748L157.47 86.3584V79.4784L197.98 102.868V109.748Z" fill="#4D3BFF"/>
<path d="M153.9 128.318L134.83 117.308V110.428L153.9 121.438V128.318Z" fill="#A298E2"/>
<path d="M181.3 144.138L157.47 130.378V123.498L181.3 137.258V144.138Z" fill="#C33AFC"/>
<path d="M153.9 150.328L134.83 139.318V132.448L153.9 143.448V150.328Z" fill="#A298E2"/>
<path d="M232.54 195.738L157.47 152.398V145.518L232.54 188.858V195.738Z" fill="#F4CE2C"/>
<path d="M153.9 161.338L134.83 150.328V143.448L153.9 154.458V161.338Z" fill="#A298E2"/>
<path d="M180.11 176.468L157.47 163.398V156.518L180.11 169.588V176.468Z" fill="#FF8657"/>
<path d="M153.9 172.348L134.83 161.338V154.458L153.9 165.468V172.348Z" fill="#A298E2"/>
<path d="M224.2 212.928L157.47 174.408V167.528L224.2 206.058V212.928Z" fill="#A298E2"/>
<path d="M153.9 139.328L134.83 128.318V121.438L153.9 132.448V139.328Z" fill="#A298E2"/>
<path d="M220.62 177.848L157.47 141.388V134.508L220.62 170.968V177.848Z" fill="#4D3BFF"/>
<path d="M153.9 183.348L134.83 172.338V165.468L153.9 176.468V183.348Z" fill="#A298E2"/>
<path d="M165.81 190.228L157.47 185.418V178.538L165.81 183.348V190.228Z" fill="#C33AFC"/>
<path d="M153.9 205.368L134.83 194.358V187.478L153.9 198.488V205.368Z" fill="#A298E2"/>
<path d="M172.96 216.368L157.47 207.428V200.548L172.96 209.488V216.368Z" fill="#F4CE2C"/>
<path d="M153.9 216.368L134.83 205.368V198.488L153.9 209.488V216.368Z" fill="#A298E2"/>
<path d="M197.98 241.828L157.47 218.438V211.558L197.98 234.948V241.828Z" fill="#FF8657"/>
<path d="M153.9 227.378L134.83 216.368V209.488L153.9 220.498V227.378Z" fill="#A298E2"/>
<path d="M221.81 266.588L157.47 229.438V222.558L221.81 259.708V266.588Z" fill="#A298E2"/>
<path d="M153.9 194.358L134.83 183.348V176.468L153.9 187.478V194.358Z" fill="#A298E2"/>
<path d="M238.5 243.198L157.47 196.418V189.538L238.5 236.318V243.198Z" fill="#4D3BFF"/>
<path opacity="0.4" d="M97.9195 466L27 425.547L133.114 365L204 405.42L97.9195 466Z" fill="#D6D8E5"/>
<path d="M98.5165 387L40 351.5L98.5165 316L157 351.5L98.5165 387Z" fill="#D6D8E5"/>
<path d="M99 452L40 418.333V351L99 384.667V452Z" fill="#B1B6C4"/>
<path d="M157 418.333L99 452V384.667L157 351V418.333Z" fill="#C4C7D6"/>
<path d="M177.563 397.092C182.618 398.499 188.024 397.846 192.597 395.275C196.231 395.275 215.923 386.981 218.599 394.052C220.945 400.231 212.421 405.979 207.861 407.07C197.949 409.482 190.548 414.438 186.55 415.297C185.028 415.843 183.395 416.008 181.794 415.777C180.193 415.547 178.672 414.928 177.365 413.975C174.524 411.002 174.788 400.627 177.563 397.092Z" fill="#A4A4A4"/>
<path d="M186.55 413.414C190.548 412.555 197.916 407.599 207.861 405.187C211.661 404.261 218.236 400.098 218.897 395.109C219.789 400.825 212.09 405.88 207.861 406.905C197.949 409.317 190.548 414.273 186.55 415.132C185.028 415.678 183.395 415.843 181.794 415.612C180.193 415.382 178.672 414.763 177.365 413.81C176.735 413.143 176.291 412.323 176.077 411.431C177.547 412.556 179.26 413.321 181.078 413.665C182.897 414.009 184.771 413.923 186.55 413.414V413.414Z" fill="#5E5E5E"/>
<path d="M142.078 378.028C147.133 379.435 152.539 378.782 157.112 376.21C160.746 376.21 180.24 367.917 183.081 374.988C185.427 381.166 176.903 386.915 172.376 388.006C162.464 390.418 155.063 395.374 151.065 396.233C149.543 396.779 147.91 396.944 146.309 396.713C144.708 396.483 143.187 395.864 141.88 394.911C139.039 392.103 139.336 381.728 142.078 378.028Z" fill="#A4A4A4"/>
<path d="M151.065 394.515C155.063 393.656 162.431 388.7 172.376 386.288C176.176 385.363 182.751 381.199 183.412 376.21C184.304 381.926 176.605 386.981 172.376 388.006C162.464 390.418 155.063 395.374 151.065 396.233C149.543 396.779 147.91 396.944 146.309 396.713C144.708 396.483 143.187 395.864 141.88 394.911C141.258 394.252 140.814 393.444 140.592 392.565C142.067 393.68 143.781 394.436 145.599 394.774C147.417 395.113 149.288 395.024 151.065 394.515V394.515Z" fill="#5E5E5E"/>
<path d="M86.8026 353.545C102.166 360.153 116.539 361.342 128.466 354.999L140.691 347.928C141.418 363.721 142.112 378.887 142.112 378.887C142.112 378.887 151.495 385.99 158.632 379.647C158.632 379.647 160.151 357.51 161.704 335.703L174.524 328.302C174.215 329.467 174.049 330.666 174.028 331.871C174.028 336.001 177.002 397.554 177.002 397.554C177.002 397.554 186.451 403.171 193.753 396.86C193.753 396.86 198.676 325.527 199.8 314.26C201.055 301.441 186.848 295.13 177.828 298.401L164.083 303.522L164.744 295.593C166.033 282.773 151.792 276.463 142.805 279.734C134.612 282.74 79.2364 303.489 79.2364 303.489C79.581 308.82 80.2318 314.126 81.1858 319.382L59.3133 317.531C58.1569 337.983 71.472 346.805 86.8026 353.545ZM124.997 318.093L139.634 309.668C139.39 310.699 139.235 311.749 139.171 312.807L124.997 318.093Z" fill="#0E1C37"/>
<path d="M47.4849 255.02C47.4849 255.02 49.269 282.212 52.8374 286.143C56.4057 290.075 68.4983 292.751 68.4983 292.751L77.7826 307.884C77.7826 307.884 69.2913 259.381 67.441 258.324C65.5908 257.266 47.4849 255.02 47.4849 255.02Z" fill="#A47256"/>
<path d="M65.3595 224.788C63.108 223.737 60.5505 223.543 58.1662 224.242C55.7819 224.941 53.7345 226.487 52.4078 228.587C49.1038 234.237 45.4364 253.698 45.106 257.002C46.4792 258.857 48.2984 260.335 50.3949 261.299C52.4915 262.264 54.7976 262.683 57.0995 262.52L65.3595 224.788Z" fill="#EDEDED"/>
<path d="M68.6303 225.283C73.322 225.515 76.8242 226.704 77.419 225.283C77.9227 222.863 78.2758 220.413 78.4762 217.949C77.9476 216.561 77.485 215.107 77.485 215.107C71.5709 211.473 69.7206 205.195 68.9277 197.662C67.6061 184.942 74.4784 173.84 87.1658 172.519C99.1263 171.263 107.915 179.655 110.294 191.186C111.549 196.869 114.06 207.706 110.657 216.99C108.774 222.211 106.329 226.374 104.049 227.167C101.682 227.117 99.3207 226.919 96.9787 226.572V226.572C96.9787 226.572 96.3509 230.107 95.9214 232.354C95.4919 234.601 95.624 235.823 100.151 238.599C104.677 241.374 93.3443 247.09 85.9433 246.528C78.5423 245.967 70.2162 241.506 67.9365 236.616C65.1941 231.264 65.3924 224.986 68.6303 225.283Z" fill="#A47256"/>
<path d="M187.773 308.379C187.77 309.049 187.592 309.707 187.256 310.287C186.919 310.867 186.437 311.348 185.856 311.683L150.008 332.366C149.426 332.706 148.765 332.885 148.092 332.885C147.418 332.885 146.757 332.706 146.175 332.366L95.9545 303.357C95.3695 303.027 94.8834 302.547 94.5464 301.966C94.2095 301.385 94.034 300.725 94.0382 300.053V299.789L187.773 308.379Z" fill="#E5E5E5"/>
<path d="M185.856 311.683L150.008 332.366C149.431 332.717 148.767 332.9 148.092 332.895V308.379H187.74C187.74 309.046 187.567 309.702 187.237 310.281C186.906 310.861 186.431 311.344 185.856 311.683V311.683Z" fill="#E5E5E5"/>
<path d="M149.446 330.483C149.042 330.725 148.579 330.852 148.108 330.852C147.637 330.852 147.175 330.725 146.77 330.483L94.5337 300.351C93.8729 299.954 93.8729 299.326 94.5337 298.963L132.992 276.727L187.773 308.379L149.446 330.483Z" fill="#F4F4F4"/>
<path d="M115.977 308.379L116.241 308.511L132.992 318.192L142.178 312.873L142.442 312.741L125.426 302.928L115.977 308.379Z" fill="#BFBFBF"/>
<path d="M116.241 308.511L132.993 318.192L142.178 312.873L125.426 303.225L116.241 308.511Z" fill="#E5E5E5"/>
<path d="M173.566 309.932L175.978 311.32C176.094 311.383 176.225 311.417 176.358 311.417C176.49 311.417 176.621 311.383 176.738 311.32L179.05 309.998C179.282 309.998 179.315 309.668 179.05 309.569L176.638 308.148C176.52 308.092 176.39 308.063 176.259 308.063C176.127 308.063 175.997 308.092 175.879 308.148L173.566 309.503C173.401 309.635 173.368 309.833 173.566 309.932Z" fill="#363636"/>
<path d="M170.162 307.884L172.574 309.271C172.691 309.335 172.822 309.368 172.954 309.368C173.087 309.368 173.218 309.335 173.334 309.271L175.647 307.95C175.878 307.95 175.878 307.619 175.647 307.52L173.235 306.133C173.119 306.069 172.988 306.036 172.855 306.036C172.722 306.036 172.592 306.069 172.475 306.133L170.162 307.454C169.997 307.652 169.964 307.884 170.162 307.884Z" fill="#363636"/>
<path d="M166.726 306L169.138 307.388C169.263 307.445 169.398 307.474 169.535 307.474C169.672 307.474 169.807 307.445 169.931 307.388L172.211 306.066C172.442 306.066 172.475 305.736 172.211 305.604L169.799 304.216C169.683 304.153 169.552 304.119 169.419 304.119C169.286 304.119 169.156 304.153 169.039 304.216L166.726 305.538C166.561 305.67 166.528 305.868 166.726 306Z" fill="#363636"/>
<path d="M163.323 304.018L165.735 305.406C165.854 305.462 165.984 305.491 166.115 305.491C166.246 305.491 166.376 305.462 166.495 305.406L168.808 304.084C169.039 304.084 169.072 303.754 168.808 303.621L166.396 302.234C166.271 302.177 166.136 302.148 165.999 302.148C165.863 302.148 165.727 302.177 165.603 302.234L163.323 303.555C163.158 303.688 163.125 303.886 163.323 304.018Z" fill="#363636"/>
<path d="M159.887 302.036L162.332 303.423C162.449 303.487 162.579 303.52 162.712 303.52C162.845 303.52 162.975 303.487 163.092 303.423L165.372 302.102C165.603 302.102 165.636 301.771 165.372 301.672L162.96 300.251C162.841 300.195 162.711 300.166 162.58 300.166C162.448 300.166 162.319 300.195 162.2 300.251L159.887 301.606C159.722 301.738 159.689 301.936 159.887 302.036Z" fill="#363636"/>
<path d="M156.484 300.053L158.896 301.474C159.015 301.53 159.144 301.559 159.276 301.559C159.407 301.559 159.537 301.53 159.656 301.474L161.968 300.119C162.2 300.119 162.233 299.789 161.968 299.69L159.556 298.302C159.434 298.238 159.298 298.205 159.16 298.205C159.022 298.205 158.886 298.238 158.764 298.302L156.484 299.624C156.319 299.756 156.285 299.954 156.484 300.053Z" fill="#363636"/>
<path d="M153.081 297.972L155.493 299.359C155.612 299.415 155.741 299.444 155.873 299.444C156.004 299.444 156.134 299.415 156.253 299.359L158.565 298.038C158.797 298.038 158.797 297.707 158.565 297.575L156.154 296.187C156.035 296.131 155.905 296.103 155.774 296.103C155.642 296.103 155.512 296.131 155.394 296.187L153.081 297.509C152.883 297.773 152.883 297.972 153.081 297.972Z" fill="#363636"/>
<path d="M149.645 296.121L152.057 297.509C152.173 297.573 152.304 297.606 152.437 297.606C152.569 297.606 152.7 297.573 152.816 297.509L155.129 296.187C155.361 296.187 155.394 295.857 155.129 295.758L152.717 294.337C152.599 294.281 152.469 294.252 152.337 294.252C152.206 294.252 152.076 294.281 151.957 294.337L149.645 295.692C149.479 295.824 149.446 296.022 149.645 296.121Z" fill="#363636"/>
<path d="M146.242 294.139L148.654 295.527C148.77 295.59 148.901 295.624 149.033 295.624C149.166 295.624 149.297 295.59 149.413 295.527L151.726 294.205C151.958 294.205 151.958 293.875 151.726 293.776L149.248 292.355C149.132 292.291 149.001 292.258 148.868 292.258C148.735 292.258 148.605 292.291 148.488 292.355L146.175 293.676C145.944 293.842 145.944 294.04 146.242 294.139Z" fill="#363636"/>
<path d="M142.805 292.19L145.217 293.577C145.342 293.634 145.477 293.663 145.614 293.663C145.75 293.663 145.886 293.634 146.01 293.577L148.29 292.256C148.521 292.256 148.554 291.925 148.29 291.793L145.944 290.372C145.827 290.309 145.697 290.275 145.564 290.275C145.431 290.275 145.301 290.309 145.184 290.372L142.871 291.694C142.64 291.859 142.64 292.057 142.805 292.19Z" fill="#363636"/>
<path d="M139.336 290.207L141.748 291.595C141.867 291.651 141.996 291.68 142.128 291.68C142.259 291.68 142.389 291.651 142.508 291.595L144.821 290.273C145.052 290.273 145.085 289.943 144.821 289.811L142.64 288.39C142.515 288.333 142.38 288.304 142.243 288.304C142.107 288.304 141.971 288.333 141.847 288.39L139.567 289.712C139.336 289.877 139.336 290.075 139.336 290.207Z" fill="#363636"/>
<path d="M136.032 288.225L138.477 289.612C138.594 289.676 138.724 289.709 138.857 289.709C138.99 289.709 139.12 289.676 139.237 289.612L141.55 288.291C141.748 288.291 141.781 287.96 141.55 287.861L139.138 286.441C139.019 286.385 138.889 286.356 138.758 286.356C138.627 286.356 138.497 286.385 138.378 286.441L136.065 287.795C135.801 288.06 135.801 288.06 136.032 288.225Z" fill="#363636"/>
<path d="M132.728 286.242L135.14 287.663C135.259 287.719 135.389 287.748 135.52 287.748C135.651 287.748 135.781 287.719 135.9 287.663L138.213 286.308C138.444 286.308 138.477 285.978 138.213 285.879L135.801 284.491C135.678 284.428 135.542 284.394 135.404 284.394C135.266 284.394 135.13 284.428 135.008 284.491L132.728 285.813C132.398 285.945 132.365 286.143 132.728 286.242Z" fill="#363636"/>
<path d="M127.508 283.335L131.572 285.681C131.691 285.737 131.82 285.766 131.952 285.766C132.083 285.766 132.213 285.737 132.332 285.681L134.645 284.359C134.876 284.359 134.876 284.029 134.645 283.897L130.614 281.452C130.495 281.396 130.365 281.367 130.234 281.367C130.102 281.367 129.973 281.396 129.854 281.452L127.541 282.806C127.506 282.804 127.471 282.809 127.438 282.82C127.406 282.831 127.375 282.849 127.349 282.872C127.323 282.895 127.302 282.923 127.286 282.954C127.271 282.985 127.262 283.019 127.26 283.054C127.258 283.089 127.263 283.124 127.274 283.156C127.285 283.189 127.303 283.22 127.326 283.246C127.349 283.272 127.377 283.293 127.408 283.308C127.439 283.324 127.473 283.333 127.508 283.335V283.335Z" fill="#363636"/>
<path d="M165.173 308.908L167.618 310.296C167.735 310.359 167.865 310.392 167.998 310.392C168.131 310.392 168.262 310.359 168.378 310.296L170.691 308.974C170.889 308.974 170.922 308.644 170.691 308.544L168.279 307.157C168.162 307.093 168.032 307.06 167.899 307.06C167.766 307.06 167.636 307.093 167.519 307.157L165.206 308.478C165.008 308.61 165.008 308.809 165.173 308.908Z" fill="#363636"/>
<path d="M161.77 306.925L164.182 308.346C164.301 308.402 164.431 308.431 164.562 308.431C164.694 308.431 164.823 308.402 164.942 308.346L167.255 306.992C167.486 306.992 167.519 306.661 167.255 306.562L164.843 305.174C164.721 305.111 164.585 305.077 164.447 305.077C164.309 305.077 164.173 305.111 164.05 305.174L161.77 306.496C161.605 306.628 161.572 306.826 161.77 306.925Z" fill="#363636"/>
<path d="M158.334 304.976L160.746 306.364C160.87 306.42 161.005 306.45 161.142 306.45C161.279 306.45 161.414 306.42 161.539 306.364L163.818 305.042C164.05 305.042 164.083 304.712 163.818 304.58L161.407 303.192C161.288 303.136 161.158 303.107 161.027 303.107C160.895 303.107 160.765 303.136 160.647 303.192L158.334 304.514C158.169 304.58 158.136 304.844 158.334 304.976Z" fill="#363636"/>
<path d="M154.931 302.994L157.343 304.381C157.462 304.437 157.591 304.466 157.723 304.466C157.854 304.466 157.984 304.437 158.103 304.381L160.416 303.06C160.647 303.06 160.647 302.729 160.416 302.597L158.004 301.21C157.885 301.154 157.755 301.125 157.624 301.125C157.492 301.125 157.363 301.154 157.244 301.21L154.931 302.531C154.733 302.663 154.733 302.862 154.931 302.994Z" fill="#363636"/>
<path d="M151.528 301.011L153.94 302.432C154.058 302.488 154.188 302.517 154.32 302.517C154.451 302.517 154.581 302.488 154.7 302.432L157.012 301.077C157.244 301.077 157.277 300.747 157.012 300.648L154.6 299.26C154.478 299.197 154.342 299.163 154.204 299.163C154.066 299.163 153.93 299.197 153.807 299.26L151.528 300.582C151.362 300.714 151.329 300.912 151.528 301.011Z" fill="#363636"/>
<path d="M148.092 299.062L150.504 300.45C150.628 300.506 150.763 300.536 150.9 300.536C151.037 300.536 151.172 300.506 151.297 300.45L153.576 299.128C153.808 299.128 153.841 298.798 153.576 298.665L151.164 297.278C151.046 297.222 150.916 297.193 150.784 297.193C150.653 297.193 150.523 297.222 150.404 297.278L148.092 298.599C147.926 298.732 147.893 298.93 148.092 299.062Z" fill="#363636"/>
<path d="M144.688 297.08L147.1 298.467C147.219 298.523 147.349 298.552 147.48 298.552C147.612 298.552 147.741 298.523 147.86 298.467L150.173 297.146C150.404 297.146 150.404 296.815 150.173 296.683L147.761 295.295C147.642 295.239 147.513 295.21 147.381 295.21C147.25 295.21 147.12 295.239 147.001 295.295L144.688 296.617C144.49 296.749 144.49 296.947 144.688 297.08Z" fill="#363636"/>
<path d="M141.252 295.097L143.664 296.485C143.781 296.548 143.911 296.582 144.044 296.582C144.177 296.582 144.308 296.548 144.424 296.485L146.737 295.163C146.968 295.163 147.001 294.833 146.737 294.734L144.325 293.313C144.2 293.256 144.065 293.227 143.929 293.227C143.792 293.227 143.657 293.256 143.532 293.313L141.252 294.668C141.087 294.668 141.054 294.998 141.252 295.097Z" fill="#363636"/>
<path d="M137.816 293.115L140.261 294.502C140.378 294.566 140.508 294.599 140.641 294.599C140.774 294.599 140.904 294.566 141.021 294.502L143.334 293.181C143.532 293.181 143.565 292.85 143.334 292.751L140.922 291.364C140.805 291.3 140.675 291.267 140.542 291.267C140.409 291.267 140.278 291.3 140.162 291.364L137.849 292.685C137.651 292.817 137.651 293.016 137.816 293.115Z" fill="#363636"/>
<path d="M134.413 291.132L136.825 292.553C136.944 292.609 137.074 292.638 137.205 292.638C137.336 292.638 137.466 292.609 137.585 292.553L139.898 291.198C140.129 291.198 140.162 290.868 139.898 290.769L137.486 289.381C137.363 289.317 137.227 289.284 137.089 289.284C136.951 289.284 136.815 289.317 136.693 289.381L134.413 290.703C134.248 290.835 134.215 291.033 134.413 291.132Z" fill="#363636"/>
<path d="M130.977 289.183L133.389 290.571C133.513 290.627 133.649 290.656 133.785 290.656C133.922 290.656 134.057 290.627 134.182 290.571L136.462 289.249C136.693 289.249 136.726 288.919 136.462 288.786L134.05 287.399C133.931 287.343 133.801 287.314 133.67 287.314C133.538 287.314 133.409 287.343 133.29 287.399L130.977 288.72C130.812 288.853 130.779 289.051 130.977 289.183Z" fill="#363636"/>
<path d="M127.574 287.201L129.986 288.588C130.105 288.644 130.234 288.673 130.366 288.673C130.497 288.673 130.627 288.644 130.746 288.588L133.058 287.267C133.29 287.267 133.29 286.936 133.058 286.804L130.646 285.416C130.528 285.36 130.398 285.331 130.266 285.331C130.135 285.331 130.005 285.36 129.887 285.416L127.574 286.738C127.375 286.87 127.375 287.068 127.574 287.201Z" fill="#363636"/>
<path d="M168.61 310.89L172.674 313.236C172.792 313.292 172.922 313.321 173.054 313.321C173.185 313.321 173.315 313.292 173.434 313.236L175.746 311.915C175.978 311.915 176.011 311.584 175.746 311.452L171.682 309.106C171.558 309.05 171.423 309.02 171.286 309.02C171.149 309.02 171.014 309.05 170.889 309.106L168.61 310.461C168.445 310.593 168.411 310.791 168.61 310.89Z" fill="#363636"/>
<path d="M127.276 283.434L129.688 284.822C129.887 284.822 129.887 285.119 129.688 285.251L127.243 286.639C127.139 286.703 127.019 286.737 126.897 286.737C126.774 286.737 126.654 286.703 126.55 286.639H126.351C126.248 286.589 126.135 286.563 126.021 286.563C125.907 286.563 125.794 286.589 125.691 286.639L123.113 288.126C122.999 288.175 122.875 288.2 122.75 288.2C122.625 288.2 122.501 288.175 122.387 288.126L120.867 287.234C120.668 287.234 120.668 286.936 120.867 286.804L123.279 285.416L123.774 285.152L124.138 284.921L124.501 284.723L126.55 283.533C126.651 283.454 126.772 283.403 126.9 283.385C127.027 283.368 127.157 283.385 127.276 283.434V283.434Z" fill="#363636"/>
<path d="M160.316 317.564L162.728 318.952C162.845 319.016 162.975 319.049 163.108 319.049C163.241 319.049 163.372 319.016 163.488 318.952L165.801 317.63C166.032 317.63 166.032 317.3 165.801 317.201L163.389 315.813C163.272 315.75 163.142 315.716 163.009 315.716C162.876 315.716 162.746 315.75 162.629 315.813L160.316 317.135C160.151 317.267 160.118 317.465 160.316 317.564Z" fill="#363636"/>
<path d="M156.913 315.615L159.325 317.003C159.444 317.059 159.574 317.088 159.705 317.088C159.837 317.088 159.966 317.059 160.085 317.003L162.398 315.681C162.629 315.681 162.629 315.351 162.398 315.219L159.986 313.831C159.867 313.775 159.737 313.746 159.606 313.746C159.475 313.746 159.345 313.775 159.226 313.831L156.913 315.152C156.715 315.285 156.715 315.483 156.913 315.615Z" fill="#363636"/>
<path d="M153.477 313.633L155.922 315.02C156.038 315.084 156.169 315.117 156.302 315.117C156.435 315.117 156.565 315.084 156.682 315.02L158.995 313.699C159.193 313.699 159.226 313.368 158.995 313.269L156.583 311.881C156.466 311.818 156.336 311.785 156.203 311.785C156.07 311.785 155.939 311.818 155.823 311.881L153.51 313.236C153.312 313.335 153.312 313.533 153.477 313.633Z" fill="#363636"/>
<path d="M124.468 296.881L126.88 298.269C127.002 298.333 127.138 298.366 127.277 298.366C127.415 298.366 127.551 298.333 127.673 298.269L129.953 296.947C130.184 296.947 130.217 296.617 129.953 296.518L127.541 295.097C127.422 295.041 127.292 295.012 127.161 295.012C127.03 295.012 126.9 295.041 126.781 295.097L124.468 296.452C124.303 296.584 124.27 296.782 124.468 296.881Z" fill="#363636"/>
<path d="M121.065 294.932L123.477 296.32C123.596 296.376 123.725 296.405 123.857 296.405C123.988 296.405 124.118 296.376 124.237 296.32L126.549 294.965C126.781 294.965 126.814 294.668 126.549 294.535L124.138 293.148C124.015 293.084 123.879 293.051 123.741 293.051C123.603 293.051 123.467 293.084 123.345 293.148L121.065 294.469C120.9 294.668 120.867 294.668 121.065 294.932Z" fill="#363636"/>
<path d="M117.662 292.95L120.074 294.337C120.19 294.401 120.321 294.434 120.454 294.434C120.586 294.434 120.717 294.401 120.834 294.337L123.146 293.016C123.378 293.016 123.411 292.685 123.146 292.586L120.734 291.165C120.61 291.109 120.475 291.079 120.338 291.079C120.201 291.079 120.066 291.109 119.941 291.165L117.662 292.52C117.497 292.652 117.463 292.85 117.662 292.95Z" fill="#363636"/>
<path d="M114.259 290.967L116.671 292.388C116.789 292.444 116.919 292.473 117.05 292.473C117.182 292.473 117.312 292.444 117.43 292.388L119.743 291.033C119.975 291.033 119.975 290.703 119.743 290.604L117.298 289.216C117.182 289.152 117.051 289.119 116.918 289.119C116.786 289.119 116.655 289.152 116.538 289.216L114.226 290.538C114.093 290.67 114.06 290.868 114.259 290.967Z" fill="#363636"/>
<path d="M149.248 311.188L152.552 313.104C152.676 313.161 152.812 313.19 152.948 313.19C153.085 313.19 153.22 313.161 153.345 313.104L155.625 311.782C155.856 311.782 155.889 311.452 155.625 311.32L152.321 309.437C152.204 309.373 152.074 309.34 151.941 309.34C151.808 309.34 151.677 309.373 151.561 309.437L149.248 310.758C149.05 310.857 149.017 311.188 149.248 311.188Z" fill="#363636"/>
<path d="M127.871 298.864L131.175 300.747C131.292 300.811 131.422 300.844 131.555 300.844C131.688 300.844 131.819 300.811 131.935 300.747L134.248 299.425C134.479 299.425 134.512 299.095 134.248 298.963L130.944 297.08C130.825 297.024 130.695 296.995 130.564 296.995C130.433 296.995 130.303 297.024 130.184 297.08L127.871 298.401C127.706 298.533 127.673 298.731 127.871 298.864Z" fill="#363636"/>
<path d="M132.166 301.276L148.224 310.56C148.343 310.616 148.472 310.645 148.604 310.645C148.735 310.645 148.865 310.616 148.984 310.56L151.297 309.238C151.528 309.238 151.528 308.908 151.297 308.776L135.272 299.524C135.15 299.461 135.014 299.427 134.876 299.427C134.738 299.427 134.602 299.461 134.479 299.524L132.199 300.846C132.001 301.011 131.968 301.276 132.166 301.276Z" fill="#363636"/>
<path d="M160.944 310.296L163.356 311.683C163.473 311.747 163.603 311.78 163.736 311.78C163.869 311.78 163.999 311.747 164.116 311.683L166.429 310.362C166.66 310.362 166.693 310.031 166.429 309.899L164.017 308.511C163.892 308.455 163.757 308.425 163.62 308.425C163.484 308.425 163.348 308.455 163.224 308.511L160.944 309.833C160.779 309.965 160.746 310.163 160.944 310.296Z" fill="#363636"/>
<path d="M157.541 308.313L159.953 309.701C160.069 309.764 160.2 309.798 160.333 309.798C160.466 309.798 160.596 309.764 160.713 309.701L163.026 308.379C163.257 308.379 163.257 308.049 163.026 307.95L160.614 306.562C160.497 306.498 160.366 306.465 160.234 306.465C160.101 306.465 159.97 306.498 159.854 306.562L157.541 307.884C157.376 307.884 157.343 308.214 157.541 308.313Z" fill="#363636"/>
<path d="M154.105 306.364L156.55 307.751C156.669 307.807 156.798 307.836 156.93 307.836C157.061 307.836 157.191 307.807 157.31 307.751L159.623 306.43C159.821 306.43 159.854 306.099 159.623 305.967L157.211 304.58C157.092 304.524 156.962 304.495 156.831 304.495C156.699 304.495 156.57 304.524 156.451 304.58L154.138 305.901C153.94 306.033 153.94 306.232 154.105 306.364Z" fill="#363636"/>
<path d="M150.702 304.381L153.114 305.769C153.23 305.833 153.361 305.866 153.494 305.866C153.626 305.866 153.757 305.833 153.874 305.769L156.186 304.447C156.418 304.447 156.451 304.117 156.186 303.985L153.774 302.597C153.656 302.541 153.526 302.512 153.395 302.512C153.263 302.512 153.133 302.541 153.015 302.597L150.702 303.952C150.537 304.084 150.504 304.282 150.702 304.381Z" fill="#363636"/>
<path d="M147.299 302.399L149.711 303.787C149.827 303.85 149.958 303.884 150.091 303.884C150.223 303.884 150.354 303.85 150.471 303.787L152.783 302.432C153.015 302.432 153.048 302.102 152.783 302.003L150.371 300.615C150.249 300.551 150.113 300.518 149.975 300.518C149.837 300.518 149.701 300.551 149.578 300.615L147.299 301.936C147.133 302.102 147.1 302.3 147.299 302.399Z" fill="#363636"/>
<path d="M143.896 300.45L146.307 301.837C146.426 301.893 146.556 301.922 146.687 301.922C146.819 301.922 146.948 301.893 147.067 301.837L149.38 300.516C149.578 300.516 149.611 300.185 149.38 300.053L146.968 298.665C146.849 298.609 146.72 298.581 146.588 298.581C146.457 298.581 146.327 298.609 146.208 298.665L143.896 299.987C143.697 300.119 143.697 300.317 143.896 300.45Z" fill="#363636"/>
<path d="M140.46 298.467L142.871 299.855C142.994 299.919 143.13 299.952 143.268 299.952C143.406 299.952 143.542 299.919 143.664 299.855L145.944 298.533C146.176 298.533 146.209 298.203 145.944 298.104L143.532 296.683C143.413 296.627 143.284 296.598 143.152 296.598C143.021 296.598 142.891 296.627 142.772 296.683L140.46 298.038C140.294 298.17 140.261 298.368 140.46 298.467Z" fill="#363636"/>
<path d="M137.056 296.485L139.336 297.972C139.455 298.028 139.585 298.057 139.716 298.057C139.847 298.057 139.977 298.028 140.096 297.972L142.409 296.617C142.64 296.617 142.673 296.287 142.409 296.187L139.997 294.8C139.874 294.736 139.738 294.703 139.6 294.703C139.462 294.703 139.326 294.736 139.204 294.8L136.924 296.121C136.891 296.187 136.858 296.386 137.056 296.485Z" fill="#363636"/>
<path d="M133.653 294.668L136.065 296.055C136.184 296.111 136.314 296.14 136.445 296.14C136.576 296.14 136.706 296.111 136.825 296.055L139.138 294.734C139.369 294.734 139.369 294.403 139.138 294.271L136.726 292.883C136.607 292.827 136.477 292.799 136.346 292.799C136.214 292.799 136.085 292.827 135.966 292.883L133.653 294.205C133.455 294.205 133.455 294.403 133.653 294.668Z" fill="#363636"/>
<path d="M130.217 292.553L132.629 293.941C132.752 294.004 132.888 294.038 133.026 294.038C133.164 294.038 133.3 294.004 133.422 293.941L135.702 292.619C135.933 292.619 135.966 292.289 135.702 292.19L133.29 290.769C133.171 290.713 133.041 290.684 132.91 290.684C132.779 290.684 132.649 290.713 132.53 290.769L130.217 292.124C130.052 292.256 130.019 292.454 130.217 292.553Z" fill="#363636"/>
<path d="M126.814 290.571L129.226 291.991C129.345 292.047 129.474 292.076 129.606 292.076C129.737 292.076 129.867 292.047 129.986 291.991L132.298 290.637C132.53 290.637 132.563 290.306 132.298 290.207L129.887 288.82C129.764 288.756 129.628 288.723 129.49 288.723C129.352 288.723 129.216 288.756 129.094 288.82L126.814 290.141C126.649 290.273 126.616 290.472 126.814 290.571Z" fill="#363636"/>
<path d="M123.411 288.621L125.823 290.009C125.942 290.065 126.071 290.094 126.203 290.094C126.334 290.094 126.464 290.065 126.583 290.009L128.896 288.687C129.127 288.687 129.127 288.357 128.896 288.225L126.484 286.837C126.365 286.781 126.235 286.752 126.104 286.752C125.972 286.752 125.843 286.781 125.724 286.837L123.411 288.159C123.213 288.291 123.213 288.489 123.411 288.621Z" fill="#363636"/>
<path d="M164.348 312.278L169.37 315.152C169.488 315.208 169.618 315.237 169.75 315.237C169.881 315.237 170.011 315.208 170.13 315.152L172.409 313.831C172.641 313.831 172.674 313.5 172.409 313.368L167.42 310.494C167.304 310.43 167.173 310.397 167.04 310.397C166.907 310.397 166.777 310.43 166.66 310.494L164.348 311.815C164.182 311.948 164.149 312.146 164.348 312.278Z" fill="#363636"/>
<path d="M159.326 313.17L161.737 314.591C161.856 314.647 161.986 314.676 162.117 314.676C162.249 314.676 162.379 314.647 162.497 314.591L164.81 313.236C165.041 313.236 165.075 312.906 164.81 312.807L162.398 311.419C162.282 311.355 162.151 311.322 162.018 311.322C161.886 311.322 161.755 311.355 161.638 311.419L159.326 312.741C159.16 312.873 159.16 313.071 159.326 313.17Z" fill="#363636"/>
<path d="M155.856 311.188L158.268 312.575C158.387 312.631 158.516 312.66 158.648 312.66C158.779 312.66 158.909 312.631 159.028 312.575L161.341 311.254C161.572 311.254 161.605 310.923 161.341 310.791L158.896 309.403C158.777 309.348 158.647 309.319 158.516 309.319C158.384 309.319 158.255 309.348 158.136 309.403L155.856 310.725C155.856 310.89 155.856 311.188 155.856 311.188Z" fill="#363636"/>
<path d="M152.552 309.238L154.964 310.626C155.081 310.69 155.211 310.723 155.344 310.723C155.477 310.723 155.608 310.69 155.724 310.626L158.037 309.304C158.235 309.304 158.268 308.974 158.037 308.875L155.625 307.454C155.506 307.398 155.376 307.369 155.245 307.369C155.114 307.369 154.984 307.398 154.865 307.454L152.552 308.809C152.321 308.941 152.321 309.139 152.552 309.238Z" fill="#363636"/>
<path d="M149.248 307.256L151.66 308.677C151.785 308.733 151.92 308.762 152.057 308.762C152.193 308.762 152.329 308.733 152.453 308.677L154.733 307.322C154.964 307.322 154.997 306.992 154.733 306.892L152.321 305.505C152.204 305.441 152.074 305.408 151.941 305.408C151.808 305.408 151.677 305.441 151.561 305.505L149.248 306.826C148.918 306.958 148.885 307.157 149.248 307.256Z" fill="#363636"/>
<path d="M145.68 305.306L148.092 306.694C148.211 306.75 148.34 306.779 148.472 306.779C148.603 306.779 148.733 306.75 148.852 306.694L151.164 305.373C151.396 305.373 151.429 305.042 151.164 304.91L148.753 303.522C148.628 303.466 148.493 303.436 148.356 303.436C148.219 303.436 148.084 303.466 147.96 303.522L145.68 304.844C145.515 304.976 145.482 305.174 145.68 305.306Z" fill="#363636"/>
<path d="M142.277 303.324L144.689 304.712C144.805 304.775 144.936 304.809 145.069 304.809C145.201 304.809 145.332 304.775 145.448 304.712L147.761 303.39C147.993 303.39 147.993 303.06 147.761 302.961L145.349 301.573C145.233 301.509 145.102 301.476 144.969 301.476C144.837 301.476 144.706 301.509 144.589 301.573L142.277 302.895C142.078 303.027 142.078 303.225 142.277 303.324Z" fill="#363636"/>
<path d="M138.84 301.276L141.252 302.663C141.377 302.72 141.512 302.749 141.649 302.749C141.786 302.749 141.921 302.72 142.045 302.663L144.325 301.342C144.556 301.342 144.589 301.011 144.325 300.879L141.913 299.491C141.797 299.428 141.666 299.395 141.533 299.395C141.4 299.395 141.27 299.428 141.153 299.491L138.84 300.813C138.675 301.044 138.642 301.276 138.84 301.276Z" fill="#363636"/>
<path d="M135.437 299.392L137.849 300.78C137.966 300.844 138.096 300.877 138.229 300.877C138.362 300.877 138.493 300.844 138.609 300.78L140.922 299.458C141.153 299.458 141.186 299.128 140.922 298.996L138.51 297.608C138.386 297.552 138.25 297.522 138.114 297.522C137.977 297.522 137.842 297.552 137.717 297.608L135.437 298.963C135.272 299.062 135.239 299.26 135.437 299.392Z" fill="#363636"/>
<path d="M132.034 297.41L134.446 298.798C134.564 298.856 134.694 298.886 134.826 298.886C134.958 298.886 135.088 298.856 135.206 298.798L137.519 297.443C137.75 297.443 137.75 297.113 137.519 297.013L135.074 295.626C134.957 295.562 134.827 295.529 134.694 295.529C134.561 295.529 134.431 295.562 134.314 295.626L132.001 296.947C131.869 297.113 131.836 297.311 132.034 297.41Z" fill="#363636"/>
<path d="M128.631 295.461L131.043 296.848C131.162 296.904 131.292 296.933 131.423 296.933C131.554 296.933 131.684 296.904 131.803 296.848L134.116 295.527C134.314 295.527 134.347 295.196 134.116 295.064L131.704 293.676C131.585 293.62 131.455 293.591 131.324 293.591C131.193 293.591 131.063 293.62 130.944 293.676L128.631 294.998C128.433 295.13 128.433 295.328 128.631 295.461Z" fill="#363636"/>
<path d="M125.195 293.478L127.607 294.866C127.729 294.93 127.865 294.963 128.003 294.963C128.141 294.963 128.277 294.93 128.4 294.866L130.68 293.544C130.911 293.544 130.944 293.214 130.68 293.115L128.268 291.694C128.149 291.638 128.019 291.609 127.888 291.609C127.756 291.609 127.627 291.638 127.508 291.694L125.195 293.049C125.03 293.181 124.997 293.379 125.195 293.478Z" fill="#363636"/>
<path d="M117.563 289.084L124.171 292.916C124.289 292.972 124.419 293.001 124.551 293.001C124.682 293.001 124.812 292.972 124.931 292.916L127.243 291.562C127.475 291.562 127.508 291.231 127.243 291.132L120.635 287.3C120.513 287.236 120.377 287.203 120.239 287.203C120.101 287.203 119.965 287.236 119.842 287.3L117.563 288.621C117.397 288.753 117.364 288.952 117.563 289.084Z" fill="#363636"/>
<path d="M162.729 315.152L166.033 317.069C166.151 317.125 166.281 317.154 166.412 317.154C166.544 317.154 166.674 317.125 166.792 317.069L169.105 315.714C169.337 315.714 169.37 315.384 169.105 315.285L165.801 313.368C165.682 313.312 165.553 313.283 165.421 313.283C165.29 313.283 165.16 313.312 165.041 313.368L162.729 314.723C162.464 314.855 162.464 315.053 162.729 315.152Z" fill="#363636"/>
<path d="M187.773 308.379L132.992 276.727V233.775L133.422 232.784L133.851 232.585C134.427 232.245 135.083 232.066 135.751 232.066C136.42 232.066 137.076 232.245 137.651 232.585L187.773 261.495C188.345 261.837 188.819 262.321 189.149 262.9C189.479 263.479 189.654 264.133 189.656 264.799V305.24C189.293 307.19 188.896 307.685 187.773 308.379Z" fill="#E5E5E5"/>
<path d="M182.751 266.617L132.992 235.196V233.775L133.422 232.784L133.851 232.585C134.427 232.245 135.083 232.066 135.751 232.066C136.42 232.066 137.076 232.245 137.651 232.585L187.773 261.495C188.389 261.846 188.885 262.376 189.194 263.015L182.751 266.617Z" fill="#E5E5E5"/>
<path d="M134.248 232.684L186.848 263.048C187.124 263.212 187.355 263.443 187.517 263.721C187.679 263.998 187.767 264.313 187.773 264.634V308.379L132.992 276.727V233.411C132.989 233.263 133.025 233.116 133.097 232.987C133.17 232.857 133.276 232.749 133.404 232.675C133.533 232.601 133.679 232.562 133.827 232.564C133.976 232.565 134.121 232.607 134.248 232.684V232.684Z" fill="#DCEEFF"/>
<path d="M134.248 232.684L186.848 263.048C187.124 263.212 187.355 263.443 187.517 263.721C187.679 263.998 187.767 264.313 187.773 264.634V308.379L132.992 276.727V233.411C132.989 233.263 133.025 233.116 133.097 232.987C133.17 232.857 133.276 232.749 133.404 232.675C133.533 232.601 133.679 232.562 133.827 232.564C133.976 232.565 134.121 232.607 134.248 232.684V232.684Z" fill="#F4F4F4"/>
<path d="M187.773 308.379V306.793L132.992 275.174V276.727L187.773 308.379Z" fill="#DBDBDB"/>
<path d="M134.413 274.447V234.964L135.074 235.328V274.117L134.413 274.447Z" fill="#1E3779"/>
<path d="M135.074 235.328V274.117L186.022 303.423V264.733L135.074 235.328Z" fill="#363636"/>
<path d="M134.413 274.447L186.022 304.216V303.423L135.074 274.117L134.413 274.447Z" fill="#031F60"/>
<path d="M75.4368 225.845C74.1152 229.149 77.4523 233.048 86.274 235.757C95.0957 238.467 95.8886 234.964 95.8886 234.964C101.773 237.601 107.508 240.557 113.069 243.819C118.356 247.519 120.702 258.258 121.429 276.363C122.255 297.311 122.321 328.368 121.627 333.754C121.627 333.754 111.715 343.666 99.0605 342.576C86.4061 341.485 65.0292 330.318 59.875 321.661C59.875 303.291 62.1547 300.284 59.1811 289.712C52.3749 265.493 48.7735 255.581 52.1106 239.458C54.8199 226.242 58.7186 224.557 63.9059 224.689C67.7671 224.872 71.6161 225.258 75.4368 225.845V225.845Z" fill="#F4F4F4"/>
<path d="M142.277 298.864C131.869 301.507 129.424 294.932 128.069 289.513C124.765 276.297 122.981 264.469 120.503 257.002C117.596 248.213 114.556 246.793 110.261 245.074C105.272 243.059 100.944 247.321 102.596 258.522C104.656 271.529 107.851 284.332 112.144 296.782C113.664 302.387 116.599 307.507 120.668 311.65C126.054 316.012 134.149 315.813 146.374 312.774C153.543 310.332 160.504 307.315 167.189 303.754C169.832 302.531 171.881 301.705 177.101 299.326C182.272 297.066 186.81 293.572 190.317 289.15C192.96 285.284 193.324 283.467 192.795 282.542C192.266 281.617 190.879 281.683 189.491 283.302C187.44 286.036 184.91 288.376 182.024 290.207C182.024 290.207 185.328 286.903 187.079 284.623C188.684 282.61 190.006 280.386 191.011 278.015C191.969 275.769 190.02 272.729 188.533 274.315C187.046 275.901 186.385 277.619 183.676 280.923C182.261 282.645 180.641 284.187 178.852 285.516C180.529 283.261 182.02 280.874 183.312 278.379C184.472 276.376 185.033 274.083 184.931 271.771C184.931 270.615 183.18 269.227 181.627 271.44C180.018 274.596 178.02 277.537 175.68 280.196C173.301 282.674 171.286 284.095 171.22 283.5C171.154 282.905 172.673 281.452 173.499 278.61C174.325 275.769 173.5 272.696 171.914 272.366C170.328 272.035 170.625 272.101 169.369 274.811C167.606 277.566 166.027 280.436 164.645 283.401C163.83 286.168 162.356 288.696 160.35 290.769C157.839 293.379 152.189 296.386 142.277 298.864Z" fill="#A47256"/>
<path d="M106.296 243.29C113.234 242.266 118.157 245.405 121.23 255.912C124.303 266.418 126.417 275.075 126.417 275.075C123.675 279.047 119.512 281.815 114.787 282.806C106.494 284.822 103.488 280.857 103.488 280.857C103.488 280.857 101.175 269.822 99.7541 262.321C98.3334 254.821 97.8378 244.546 106.296 243.29Z" fill="#EDEDED"/>
<path d="M109.865 189.402C109.865 189.402 115.289 174.403 91.5001 171C74.3523 168.555 69.3939 180.668 66.5001 189.5C62.8939 203.668 73.4214 213.125 78.4765 217.85C83.4712 219.121 92.4492 199.919 97.0001 197.5C97.2837 194.381 97.0636 192.963 97.0001 189.832C97.0001 189.832 98.0001 189 109.865 189.402Z" fill="#27201B"/>
<path d="M157 401.114V350L117 373.687L132.402 406L157 401.114Z" fill="#C4C7D6"/>
<path d="M133.5 352.5L147 343.529L157 350L140.5 360L133.5 352.5Z" fill="#D6D8E5"/>
<defs>
<linearGradient id="paint0_linear_203_213" x1="102.56" y1="197.178" x2="390.46" y2="197.178" gradientUnits="userSpaceOnUse">
<stop offset="0.21" stop-color="white" stop-opacity="0"/>
<stop offset="1" stop-color="white" stop-opacity="0.2"/>
</linearGradient>
</defs>
</svg>
