<svg id="visual" viewBox="0 0 960 540" width="960" height="540" xmlns="http://www.w3.org/2000/svg" xmlns:xlink="http://www.w3.org/1999/xlink" version="1.1"><rect x="0" y="0" width="960" height="540" fill="#5790FF"></rect><defs><linearGradient id="grad1_0" x1="43.8%" y1="100%" x2="100%" y2="0%"><stop offset="14.444444444444446%" stop-color="#79a6ff" stop-opacity="1"></stop><stop offset="85.55555555555554%" stop-color="#79a6ff" stop-opacity="1"></stop></linearGradient></defs><defs><linearGradient id="grad1_1" x1="43.8%" y1="100%" x2="100%" y2="0%"><stop offset="14.444444444444446%" stop-color="#79a6ff" stop-opacity="1"></stop><stop offset="85.55555555555554%" stop-color="#689bff" stop-opacity="1"></stop></linearGradient></defs><defs><linearGradient id="grad1_2" x1="43.8%" y1="100%" x2="100%" y2="0%"><stop offset="14.444444444444446%" stop-color="#5790ff" stop-opacity="1"></stop><stop offset="85.55555555555554%" stop-color="#689bff" stop-opacity="1"></stop></linearGradient></defs><defs><linearGradient id="grad2_0" x1="0%" y1="100%" x2="56.3%" y2="0%"><stop offset="14.444444444444446%" stop-color="#79a6ff" stop-opacity="1"></stop><stop offset="85.55555555555554%" stop-color="#79a6ff" stop-opacity="1"></stop></linearGradient></defs><defs><linearGradient id="grad2_1" x1="0%" y1="100%" x2="56.3%" y2="0%"><stop offset="14.444444444444446%" stop-color="#689bff" stop-opacity="1"></stop><stop offset="85.55555555555554%" stop-color="#79a6ff" stop-opacity="1"></stop></linearGradient></defs><defs><linearGradient id="grad2_2" x1="0%" y1="100%" x2="56.3%" y2="0%"><stop offset="14.444444444444446%" stop-color="#689bff" stop-opacity="1"></stop><stop offset="85.55555555555554%" stop-color="#5790ff" stop-opacity="1"></stop></linearGradient></defs><g transform="translate(960, 540)"><path d="M-270 0C-264.2 -35.1 -258.3 -70.1 -244.8 -101.4C-231.3 -132.7 -210.1 -160.2 -186 -186C-161.8 -211.7 -134.8 -235.7 -103.3 -249.4C-71.8 -263.2 -35.9 -266.6 0 -270L0 0Z" fill="#6096ff"></path><path d="M-180 0C-176.1 -23.4 -172.2 -46.7 -163.2 -67.6C-154.2 -88.5 -140.1 -106.8 -124 -124C-107.9 -141.2 -89.9 -157.2 -68.9 -166.3C-47.9 -175.4 -23.9 -177.7 0 -180L0 0Z" fill="#71a1ff"></path><path d="M-90 0C-88.1 -11.7 -86.1 -23.4 -81.6 -33.8C-77.1 -44.2 -70 -53.4 -62 -62C-53.9 -70.6 -44.9 -78.6 -34.4 -83.1C-23.9 -87.7 -12 -88.9 0 -90L0 0Z" fill="#79a6ff"></path></g><g transform="translate(0, 0)"><path d="M270 0C257.7 32.7 245.5 65.4 231.9 96.1C218.3 126.7 203.3 155.3 182.4 182.4C161.5 209.5 134.7 235.1 103.3 249.4C71.9 263.8 36 266.9 0 270L0 0Z" fill="#6096ff"></path><path d="M180 0C171.8 21.8 163.7 43.6 154.6 64C145.5 84.5 135.6 103.6 121.6 121.6C107.7 139.7 89.8 156.7 68.9 166.3C48 175.9 24 177.9 0 180L0 0Z" fill="#71a1ff"></path><path d="M90 0C85.9 10.9 81.8 21.8 77.3 32C72.8 42.2 67.8 51.8 60.8 60.8C53.8 69.8 44.9 78.4 34.4 83.1C24 87.9 12 89 0 90L0 0Z" fill="#79a6ff"></path></g></svg>