<svg id="visual" viewBox="0 0 960 540" width="960" height="540" xmlns="http://www.w3.org/2000/svg" xmlns:xlink="http://www.w3.org/1999/xlink" version="1.1"><rect x="0" y="0" width="960" height="540" fill="#5790FF"></rect><defs><linearGradient id="grad1_0" x1="43.8%" y1="0%" x2="100%" y2="100%"><stop offset="14.444444444444446%" stop-color="#7ca7ff" stop-opacity="1"></stop><stop offset="85.55555555555554%" stop-color="#7ca7ff" stop-opacity="1"></stop></linearGradient></defs><defs><linearGradient id="grad1_1" x1="43.8%" y1="0%" x2="100%" y2="100%"><stop offset="14.444444444444446%" stop-color="#7ca7ff" stop-opacity="1"></stop><stop offset="85.55555555555554%" stop-color="#6a9cff" stop-opacity="1"></stop></linearGradient></defs><defs><linearGradient id="grad1_2" x1="43.8%" y1="0%" x2="100%" y2="100%"><stop offset="14.444444444444446%" stop-color="#5790ff" stop-opacity="1"></stop><stop offset="85.55555555555554%" stop-color="#6a9cff" stop-opacity="1"></stop></linearGradient></defs><defs><linearGradient id="grad2_0" x1="0%" y1="0%" x2="56.3%" y2="100%"><stop offset="14.444444444444446%" stop-color="#7ca7ff" stop-opacity="1"></stop><stop offset="85.55555555555554%" stop-color="#7ca7ff" stop-opacity="1"></stop></linearGradient></defs><defs><linearGradient id="grad2_1" x1="0%" y1="0%" x2="56.3%" y2="100%"><stop offset="14.444444444444446%" stop-color="#6a9cff" stop-opacity="1"></stop><stop offset="85.55555555555554%" stop-color="#7ca7ff" stop-opacity="1"></stop></linearGradient></defs><defs><linearGradient id="grad2_2" x1="0%" y1="0%" x2="56.3%" y2="100%"><stop offset="14.444444444444446%" stop-color="#6a9cff" stop-opacity="1"></stop><stop offset="85.55555555555554%" stop-color="#5790ff" stop-opacity="1"></stop></linearGradient></defs><g transform="translate(960, 0)"><path d="M0 270C-36.7 245.2 -73.4 220.3 -116 200.9C-158.6 181.5 -207.2 167.6 -233.8 135C-260.5 102.4 -265.2 51.2 -270 0L0 0Z" fill="#6196ff"></path><path d="M0 180C-24.5 163.4 -48.9 146.9 -77.3 133.9C-105.7 121 -138.1 111.7 -155.9 90C-173.7 68.3 -176.8 34.1 -180 0L0 0Z" fill="#73a1ff"></path><path d="M0 90C-12.2 81.7 -24.5 73.4 -38.7 67C-52.9 60.5 -69.1 55.9 -77.9 45C-86.8 34.1 -88.4 17.1 -90 0L0 0Z" fill="#7ca7ff"></path></g><g transform="translate(0, 540)"><path d="M0 -270C36.4 -244.7 72.8 -219.4 115.5 -200.1C158.2 -180.7 207 -167.3 233.8 -135C260.6 -102.7 265.3 -51.3 270 0L0 0Z" fill="#6196ff"></path><path d="M0 -180C24.3 -163.1 48.6 -146.3 77 -133.4C105.4 -120.5 138 -111.6 155.9 -90C173.7 -68.4 176.9 -34.2 180 0L0 0Z" fill="#73a1ff"></path><path d="M0 -90C12.1 -81.6 24.3 -73.1 38.5 -66.7C52.7 -60.2 69 -55.8 77.9 -45C86.9 -34.2 88.4 -17.1 90 0L0 0Z" fill="#7ca7ff"></path></g></svg>