<svg id="visual" viewBox="0 0 900 600" width="900" height="600" xmlns="http://www.w3.org/2000/svg" xmlns:xlink="http://www.w3.org/1999/xlink" version="1.1"><rect x="0" y="0" width="900" height="600" fill="#0057FF"></rect><defs><linearGradient id="grad1_0" x1="33.3%" y1="0%" x2="100%" y2="100%"><stop offset="20%" stop-color="#6b99f6" stop-opacity="1"></stop><stop offset="80%" stop-color="#6b99f6" stop-opacity="1"></stop></linearGradient></defs><defs><linearGradient id="grad1_1" x1="33.3%" y1="0%" x2="100%" y2="100%"><stop offset="20%" stop-color="#6b99f6" stop-opacity="1"></stop><stop offset="80%" stop-color="#3c7afe" stop-opacity="1"></stop></linearGradient></defs><defs><linearGradient id="grad1_2" x1="33.3%" y1="0%" x2="100%" y2="100%"><stop offset="20%" stop-color="#0057ff" stop-opacity="1"></stop><stop offset="80%" stop-color="#3c7afe" stop-opacity="1"></stop></linearGradient></defs><defs><linearGradient id="grad2_0" x1="0%" y1="0%" x2="66.7%" y2="100%"><stop offset="20%" stop-color="#6b99f6" stop-opacity="1"></stop><stop offset="80%" stop-color="#6b99f6" stop-opacity="1"></stop></linearGradient></defs><defs><linearGradient id="grad2_1" x1="0%" y1="0%" x2="66.7%" y2="100%"><stop offset="20%" stop-color="#3c7afe" stop-opacity="1"></stop><stop offset="80%" stop-color="#6b99f6" stop-opacity="1"></stop></linearGradient></defs><defs><linearGradient id="grad2_2" x1="0%" y1="0%" x2="66.7%" y2="100%"><stop offset="20%" stop-color="#3c7afe" stop-opacity="1"></stop><stop offset="80%" stop-color="#0057ff" stop-opacity="1"></stop></linearGradient></defs><g transform="translate(900, 0)"><path d="M0 297.5C-57.5 292.9 -115.1 288.3 -148.7 257.6C-182.4 227 -192.2 170.3 -213 123C-233.9 75.7 -265.7 37.9 -297.5 0L0 0Z" fill="#2369ff"></path><path d="M0 198.3C-38.4 195.2 -76.7 192.2 -99.2 171.7C-121.6 151.3 -128.2 113.5 -142 82C-155.9 50.5 -177.1 25.2 -198.3 0L0 0Z" fill="#548afa"></path><path d="M0 99.2C-19.2 97.6 -38.4 96.1 -49.6 85.9C-60.8 75.7 -64.1 56.8 -71 41C-78 25.2 -88.6 12.6 -99.2 0L0 0Z" fill="#6b99f6"></path></g><g transform="translate(0, 600)"><path d="M0 -297.5C53.8 -290.7 107.7 -284 148.7 -257.6C189.8 -231.2 218.1 -185.2 240.8 -139C263.4 -92.8 280.4 -46.4 297.5 0L0 0Z" fill="#2369ff"></path><path d="M0 -198.3C35.9 -193.8 71.8 -189.3 99.2 -171.7C126.5 -154.2 145.4 -123.5 160.5 -92.7C175.6 -61.9 187 -30.9 198.3 0L0 0Z" fill="#548afa"></path><path d="M0 -99.2C17.9 -96.9 35.9 -94.7 49.6 -85.9C63.3 -77.1 72.7 -61.7 80.3 -46.3C87.8 -30.9 93.5 -15.5 99.2 0L0 0Z" fill="#6b99f6"></path></g></svg>