<svg id="visual" viewBox="0 0 960 540" width="960" height="540" xmlns="http://www.w3.org/2000/svg" xmlns:xlink="http://www.w3.org/1999/xlink" version="1.1"><rect x="0" y="0" width="960" height="540" fill="#5790FF"></rect><defs><linearGradient id="grad1_0" x1="43.8%" y1="0%" x2="100%" y2="100%"><stop offset="14.444444444444446%" stop-color="#85adff" stop-opacity="1"></stop><stop offset="85.55555555555554%" stop-color="#85adff" stop-opacity="1"></stop></linearGradient></defs><defs><linearGradient id="grad1_1" x1="43.8%" y1="0%" x2="100%" y2="100%"><stop offset="14.444444444444446%" stop-color="#85adff" stop-opacity="1"></stop><stop offset="85.55555555555554%" stop-color="#6f9fff" stop-opacity="1"></stop></linearGradient></defs><defs><linearGradient id="grad1_2" x1="43.8%" y1="0%" x2="100%" y2="100%"><stop offset="14.444444444444446%" stop-color="#5790ff" stop-opacity="1"></stop><stop offset="85.55555555555554%" stop-color="#6f9fff" stop-opacity="1"></stop></linearGradient></defs><defs><linearGradient id="grad2_0" x1="0%" y1="0%" x2="56.3%" y2="100%"><stop offset="14.444444444444446%" stop-color="#85adff" stop-opacity="1"></stop><stop offset="85.55555555555554%" stop-color="#85adff" stop-opacity="1"></stop></linearGradient></defs><defs><linearGradient id="grad2_1" x1="0%" y1="0%" x2="56.3%" y2="100%"><stop offset="14.444444444444446%" stop-color="#6f9fff" stop-opacity="1"></stop><stop offset="85.55555555555554%" stop-color="#85adff" stop-opacity="1"></stop></linearGradient></defs><defs><linearGradient id="grad2_2" x1="0%" y1="0%" x2="56.3%" y2="100%"><stop offset="14.444444444444446%" stop-color="#6f9fff" stop-opacity="1"></stop><stop offset="85.55555555555554%" stop-color="#5790ff" stop-opacity="1"></stop></linearGradient></defs><g transform="translate(960, 0)"><path d="M0 270C-41 252.5 -81.9 235.1 -124 214.8C-166.1 194.5 -209.3 171.3 -233.8 135C-258.3 98.7 -264.2 49.4 -270 0L0 0Z" fill="#6397ff"></path><path d="M0 180C-27.3 168.4 -54.6 156.7 -82.7 143.2C-110.7 129.6 -139.5 114.2 -155.9 90C-172.2 65.8 -176.1 32.9 -180 0L0 0Z" fill="#7aa6ff"></path><path d="M0 90C-13.7 84.2 -27.3 78.4 -41.3 71.6C-55.4 64.8 -69.8 57.1 -77.9 45C-86.1 32.9 -88.1 16.5 -90 0L0 0Z" fill="#85adff"></path></g><g transform="translate(0, 540)"><path d="M0 -270C46 -261.3 92 -252.6 133.5 -231.2C175 -209.8 211.8 -175.7 233.8 -135C255.8 -94.3 262.9 -47.2 270 0L0 0Z" fill="#6397ff"></path><path d="M0 -180C30.7 -174.2 61.4 -168.4 89 -154.2C116.6 -139.9 141.2 -117.1 155.9 -90C170.5 -62.9 175.3 -31.4 180 0L0 0Z" fill="#7aa6ff"></path><path d="M0 -90C15.3 -87.1 30.7 -84.2 44.5 -77.1C58.3 -69.9 70.6 -58.6 77.9 -45C85.3 -31.4 87.6 -15.7 90 0L0 0Z" fill="#85adff"></path></g></svg>